<svg width="37" height="37" viewBox="0 0 37 37" fill="none" xmlns="http://www.w3.org/2000/svg">
  <path d="M36.9942 21.8445C36.9977 21.0837 36.878 18.2132 36.7867 17.3923C35.7345 7.9706 28.0876 1.13254 18.6052 1.13254C8.72854 1.13254 0.726167 8.74298 0.183271 18.8341C0.171709 19.0544 0.0907713 20.6171 0.08499 21.5473L0.0820994 22.0647C0.0346931 22.2786 0.0057869 22.4995 0.0057869 22.7272V32.7959C0.0057869 34.4898 1.38346 35.8674 3.07736 35.8674H6.19519C7.8891 35.8674 9.26731 34.4898 9.26731 32.7959V22.7278C9.26731 21.0339 7.88848 19.6562 6.19516 19.6562H3.07617C2.86761 19.6563 2.65958 19.6774 2.45527 19.7193C2.47261 19.3441 2.48822 19.0475 2.49227 18.9585C2.96868 10.1137 9.97667 3.44507 18.6052 3.44507C26.8897 3.44507 33.5688 9.41942 34.488 17.6496C34.5273 17.993 34.577 18.866 34.617 19.7424C34.3915 19.6904 34.1614 19.6562 33.922 19.6562H30.8406C29.1467 19.6562 27.769 21.0339 27.769 22.7278V32.7606C27.769 34.455 29.1467 35.8321 30.8406 35.8321H33.922C35.6159 35.8321 36.9942 34.4545 36.9942 32.7606V22.7278C36.9942 22.5394 36.9711 22.3561 36.9375 22.178C36.9711 22.0716 36.993 21.9606 36.9942 21.8444V21.8445ZM3.07621 21.9687H6.19404C6.61318 21.9687 6.95366 22.3087 6.95366 22.7278V32.7964C6.95366 33.2162 6.61256 33.5555 6.194 33.5555H3.07617C2.65703 33.5555 2.31709 33.2155 2.31709 32.7964V22.7278C2.31825 22.3087 2.65819 21.9687 3.07621 21.9687ZM34.6817 32.76C34.6817 33.1792 34.3406 33.5191 33.9221 33.5191H30.8407C30.4216 33.5191 30.0816 33.1792 30.0816 32.76V22.7278C30.0816 22.3087 30.4216 21.9688 30.8407 21.9688H33.9221C34.3412 21.9688 34.6817 22.3087 34.6817 22.7278V32.76Z" fill="rgba(155,254,3,0.9)"/>
</svg>
