<svg xmlns="http://www.w3.org/2000/svg"><path d="M13.125 21.9016C20.2419 21.9016 26.25 23.0726 26.25 27.5953C26.25 32.118 20.2034 33.25 13.125 33.25C6.00811 33.25 0 32.0772 0 27.5563C0 23.0336 6.04489 21.9016 13.125 21.9016ZM29.7482 8.75C30.6166 8.75 31.3214 9.46653 31.3214 10.3453V12.4038H33.4268C34.2934 12.4038 35 13.1203 35 13.9991C35 14.8779 34.2934 15.5944 33.4268 15.5944H31.3214V17.6547C31.3214 18.5335 30.6166 19.25 29.7482 19.25C28.8816 19.25 28.175 18.5335 28.175 17.6547V15.5944H26.0732C25.2048 15.5944 24.5 14.8779 24.5 13.9991C24.5 13.1203 25.2048 12.4038 26.0732 12.4038H28.175V10.3453C28.175 9.46653 28.8816 8.75 29.7482 8.75ZM13.125 0C17.9455 0 21.8096 3.9141 21.8096 8.79697C21.8096 13.6798 17.9455 17.5939 13.125 17.5939C8.3045 17.5939 4.44039 13.6798 4.44039 8.79697C4.44039 3.9141 8.3045 0 13.125 0Z"/></svg>