<svg xmlns="http://www.w3.org/2000/svg"><path d="M12.36 27.9131L12.3439 27.9161L12.2404 27.9671L12.2112 27.9729L12.1908 27.9671L12.0873 27.9161C12.0717 27.9112 12.0601 27.9136 12.0523 27.9233L12.0464 27.9379L12.0216 28.5621L12.0289 28.5913L12.0435 28.6102L12.1952 28.7181L12.2171 28.724L12.2346 28.7181L12.3862 28.6102L12.4037 28.5869L12.4096 28.5621L12.3848 27.9394C12.3809 27.9238 12.3726 27.9151 12.36 27.9131ZM12.7464 27.7483L12.7275 27.7513L12.4577 27.8869L12.4431 27.9015L12.4387 27.9175L12.465 28.5446L12.4723 28.5621L12.4839 28.5723L12.7771 28.7079C12.7955 28.7128 12.8096 28.7089 12.8194 28.6963L12.8252 28.6758L12.7756 27.7804C12.7707 27.7629 12.761 27.7522 12.7464 27.7483ZM11.7037 27.7513C11.6973 27.7474 11.6896 27.7461 11.6823 27.7477C11.675 27.7494 11.6685 27.7538 11.6644 27.76L11.6556 27.7804L11.606 28.6758C11.607 28.6933 11.6153 28.705 11.6308 28.7108L11.6527 28.7079L11.9458 28.5723L11.9604 28.5606L11.9662 28.5446L11.991 27.9175L11.9866 27.9L11.9721 27.8854L11.7037 27.7513Z"/></svg>