<svg xmlns="http://www.w3.org/2000/svg" preserveAspectRatio="none" width="100%" height="100%" overflow="visible" style="display: block;" viewBox="0 0 40 40" fill="none">
<g id="Edit Square 1">
<path id="Vector" d="M19.2003 5.0338C8.10119 5.0338 4.40039 8.7346 4.40039 19.8338C4.40039 30.933 8.10119 34.6338 19.2003 34.6338C30.2995 34.6338 34.0003 30.933 34.0003 19.8338" stroke="white" stroke-width="3.11111" stroke-linecap="round" stroke-linejoin="round"/>
<path id="Vector_2" fill-rule="evenodd" clip-rule="evenodd" d="M31.2456 7.51982C29.6568 6.11342 27.2296 6.26062 25.8232 7.84942C25.8232 7.84942 18.8328 15.7454 16.4088 18.4862C13.9816 21.2254 15.7608 25.0094 15.7608 25.0094C15.7608 25.0094 19.7672 26.2782 22.1576 23.5774C24.5496 20.8766 31.5752 12.9422 31.5752 12.9422C32.9816 11.3534 32.8328 8.92622 31.2456 7.51982Z" stroke="white" stroke-width="3.11111" stroke-linecap="round" stroke-linejoin="round"/>
<path id="Vector_3" d="M24.0144 9.91485L29.7664 15.0076" stroke="white" stroke-width="3.11111" stroke-linecap="round" stroke-linejoin="round"/>
</g>
</svg>
