<svg xmlns="http://www.w3.org/2000/svg"><path d="M14.6875 24.5089C22.6516 24.5089 29.375 25.8194 29.375 30.8805C29.375 35.9416 22.6085 37.2083 14.6875 37.2083C6.72336 37.2083 0 35.8959 0 30.8368C0 25.7757 6.76452 24.5089 14.6875 24.5089ZM33.2897 9.79167C34.2614 9.79167 35.0501 10.5935 35.0501 11.5769V13.8804H37.4062C38.376 13.8804 39.1667 14.6822 39.1667 15.6656C39.1667 16.6491 38.376 17.4509 37.4062 17.4509H35.0501V19.7564C35.0501 20.7398 34.2614 21.5417 33.2897 21.5417C32.3199 21.5417 31.5292 20.7398 31.5292 19.7564V17.4509H29.1772C28.2054 17.4509 27.4167 16.6491 27.4167 15.6656C27.4167 14.6822 28.2054 13.8804 29.1772 13.8804H31.5292V11.5769C31.5292 10.5935 32.3199 9.79167 33.2897 9.79167ZM14.6875 0C20.0819 0 24.406 4.38007 24.406 9.84423C24.406 15.3084 20.0819 19.6885 14.6875 19.6885C9.29313 19.6885 4.96901 15.3084 4.96901 9.84423C4.96901 4.38007 9.29313 0 14.6875 0Z"/></svg>