<svg xmlns="http://www.w3.org/2000/svg"><path d="M11.775 0.000289996C12.9563 0.0362144 14.1 0.242464 15.2082 0.619339H15.3188C15.3938 0.654964 15.45 0.694339 15.4875 0.729964C15.9019 0.863089 16.2938 1.01309 16.6688 1.21934L17.3813 1.53809C17.6625 1.68809 18 1.96746 18.1875 2.08184C18.375 2.19246 18.5813 2.30684 18.75 2.43621C20.8332 0.844339 23.3625 -0.0181606 25.9688 0.000289996C27.1519 0.000289996 28.3332 0.167464 29.4563 0.544339C36.3769 2.79434 38.8707 10.3881 36.7875 17.0256C35.6063 20.4175 33.675 23.5131 31.1457 26.0425C27.525 29.5487 23.5519 32.6612 19.275 35.3425L18.8063 35.6256L18.3188 35.3237C14.0269 32.6612 10.0313 29.5487 6.37691 26.0237C3.86441 23.4943 1.93128 20.4175 0.731281 17.0256C-1.38747 10.3881 1.10628 2.79434 8.10191 0.504964C8.64566 0.317464 9.20628 0.186214 9.76878 0.113089H9.99378C10.5207 0.0362144 11.0438 0.000289996 11.5688 0.000289996H11.775ZM28.4813 5.92559C27.7125 5.66121 26.8688 6.07559 26.5875 6.86309C26.325 7.65059 26.7375 8.51309 27.525 8.79246C28.7269 9.24246 29.5313 10.4256 29.5313 11.7362V11.7943C29.4957 12.2237 29.625 12.6381 29.8875 12.9568C30.15 13.2756 30.5438 13.4612 30.9563 13.5006C31.725 13.48 32.3813 12.8631 32.4375 12.0737V11.8506C32.4938 9.22371 30.9019 6.84434 28.4813 5.92559Z"/></svg>