<svg xmlns="http://www.w3.org/2000/svg"><path d="M0 3.75C0 1.67893 1.67893 0 3.75 0H5.625V30H3.75C1.67893 30 0 28.3211 0 26.25V3.75ZM26.25 8.4375H18.75C18.2323 8.4375 17.8125 8.85724 17.8125 9.375V11.25C17.8125 11.7677 18.2323 12.1875 18.75 12.1875H26.25C26.7677 12.1875 27.1875 11.7677 27.1875 11.25V9.375C27.1875 8.85724 26.7677 8.4375 26.25 8.4375ZM8.4375 30H33.75C35.8211 30 37.5 28.3211 37.5 26.25V3.75C37.5 1.67893 35.8211 0 33.75 0H8.4375V30ZM18.75 5.625H26.25C28.3211 5.625 30 7.30393 30 9.375V11.25C30 13.3211 28.3211 15 26.25 15H18.75C16.6789 15 15 13.3211 15 11.25V9.375C15 7.30393 16.6789 5.625 18.75 5.625Z"/></svg>