<svg xmlns="http://www.w3.org/2000/svg"><path d="M13.9398 31.4809L13.9217 31.4842L13.8049 31.5418L13.772 31.5484L13.749 31.5418L13.6322 31.4842C13.6147 31.4787 13.6015 31.4815 13.5928 31.4924L13.5862 31.5089L13.5582 32.2128L13.5664 32.2457L13.5829 32.2671L13.7539 32.3888L13.7786 32.3954L13.7984 32.3888L13.9694 32.2671L13.9891 32.2408L13.9957 32.2128L13.9678 31.5105C13.9634 31.493 13.9541 31.4831 13.9398 31.4809ZM14.3757 31.2951L14.3543 31.2984L14.05 31.4513L14.0336 31.4678L14.0286 31.4859L14.0582 32.1931L14.0664 32.2128L14.0796 32.2244L14.4102 32.3773C14.431 32.3828 14.4469 32.3784 14.4579 32.3642L14.4645 32.3411L14.4086 31.3313C14.4031 31.3115 14.3921 31.2995 14.3757 31.2951ZM13.1997 31.2984C13.1924 31.294 13.1838 31.2925 13.1755 31.2944C13.1672 31.2962 13.16 31.3012 13.1553 31.3082L13.1454 31.3313L13.0895 32.3411C13.0906 32.3609 13.0999 32.374 13.1174 32.3806L13.1421 32.3773L13.4727 32.2244L13.4891 32.2112L13.4957 32.1931L13.5237 31.4859L13.5187 31.4661L13.5023 31.4497L13.1997 31.2984Z"/></svg>