<svg width="35.3065" height="32.9026" viewBox="0 0 35.3065 32.9026" fill="none" xmlns="http://www.w3.org/2000/svg">
  <path d="M28.8462 0L20.8834 8.03786V25.6911L28.8462 18.4796V0ZM0 8.03786V31.5505C0 31.7508 0.0876402 31.9261 0.262921 32.0763C0.438201 32.2266 0.626002 32.3017 0.826322 32.3017C0.926482 32.3017 1.0016 32.2892 1.05168 32.2641C1.10176 32.2391 1.15184 32.2266 1.20192 32.2266C2.30369 31.7258 3.55569 31.3126 4.95793 30.9871C6.36018 30.6616 7.66226 30.4988 8.86418 30.4988C10.4167 30.4988 11.9817 30.6741 13.5592 31.0246C15.1367 31.3752 16.5014 32.0012 17.6532 32.9026V8.03786C16.5014 7.13642 15.1367 6.51042 13.5592 6.15986C11.9817 5.80929 10.4167 5.63401 8.86418 5.63401C7.26162 5.63401 5.68409 5.80929 4.13161 6.15986C2.57913 6.51042 1.20192 7.13642 0 8.03786ZM35.3065 29.6725V8.03786C34.8057 7.6873 34.2924 7.38682 33.7665 7.13642C33.2407 6.88602 32.6773 6.66066 32.0763 6.46034V28.095C31.1749 27.7945 30.2609 27.5816 29.3344 27.4564C28.408 27.3312 27.4439 27.2686 26.4423 27.2686C25.5409 27.2686 24.5518 27.3688 23.4751 27.5691C22.3983 27.7694 21.3341 28.0574 20.2825 28.433C19.2308 28.8086 18.3544 29.2218 17.6532 29.6725V32.9026C18.3544 32.4519 19.2308 32.0388 20.2825 31.6632C21.3341 31.2876 22.3983 30.9996 23.4751 30.7993C24.5518 30.599 25.5409 30.4988 26.4423 30.4988C27.7945 30.4988 29.1216 30.624 30.4237 30.8744C31.7258 31.1248 32.9527 31.5505 34.1046 32.1514C34.2047 32.2015 34.3299 32.2266 34.4802 32.2266C34.6805 32.2266 34.8683 32.1389 35.0436 31.9636C35.2189 31.7884 35.3065 31.6006 35.3065 31.4002V29.6725Z" fill="#9BFE03"/>
</svg>
