<svg xmlns="http://www.w3.org/2000/svg"><path d="M15 4.375C15.4973 4.375 15.9742 4.57254 16.3258 4.92417C16.6775 5.27581 16.875 5.75272 16.875 6.25V13.125H23.75C24.2473 13.125 24.7242 13.3225 25.0758 13.6742C25.4275 14.0258 25.625 14.5027 25.625 15C25.625 15.4973 25.4275 15.9742 25.0758 16.3258C24.7242 16.6775 24.2473 16.875 23.75 16.875H16.875V23.75C16.875 24.2473 16.6775 24.7242 16.3258 25.0758C15.9742 25.4275 15.4973 25.625 15 25.625C14.5027 25.625 14.0258 25.4275 13.6742 25.0758C13.3225 24.7242 13.125 24.2473 13.125 23.75V16.875H6.25C5.75272 16.875 5.27581 16.6775 4.92417 16.3258C4.57254 15.9742 4.375 15.4973 4.375 15C4.375 14.5027 4.57254 14.0258 4.92417 13.6742C5.27581 13.3225 5.75272 13.125 6.25 13.125H13.125V6.25C13.125 5.75272 13.3225 5.27581 13.6742 4.92417C14.0258 4.57254 14.5027 4.375 15 4.375Z"/></svg>