<svg width="35.1" height="35.1001" viewBox="0 0 35.1 35.1001" fill="none" xmlns="http://www.w3.org/2000/svg">
  <path fill-rule="evenodd" clip-rule="evenodd" d="M24.7554 19.3501C23.7618 19.3501 22.9482 18.5455 22.9482 17.5501C22.9482 16.5547 23.7456 15.7501 24.7392 15.7501H24.7554C25.749 15.7501 26.5554 16.5547 26.5554 17.5501C26.5554 18.5455 25.749 19.3501 24.7554 19.3501ZM17.5572 19.3501C16.5636 19.3501 15.75 18.5455 15.75 17.5501C15.75 16.5547 16.5474 15.7501 17.541 15.7501H17.5572C18.5508 15.7501 19.3572 16.5547 19.3572 17.5501C19.3572 18.5455 18.5508 19.3501 17.5572 19.3501ZM10.3572 19.3501C9.3636 19.3501 8.55 18.5455 8.55 17.5501C8.55 16.5547 9.3474 15.7501 10.341 15.7501H10.3572C11.3508 15.7501 12.1572 16.5547 12.1572 17.5501C12.1572 18.5455 11.3508 19.3501 10.3572 19.3501ZM17.55 0C4.5918 0 0 4.5936 0 17.5501C0 30.5065 4.5918 35.1001 17.55 35.1001C30.5082 35.1001 35.1 30.5065 35.1 17.5501C35.1 4.5936 30.5082 0 17.55 0Z" fill="#84CC16"/>
</svg>
