<svg xmlns="http://www.w3.org/2000/svg" viewBox="0 0 29.0306 29.029" fill="none">
  <path d="M10.2264 5.02833C11.0985 2.47625 14.6247 2.39896 15.6587 4.79646L15.7462 5.02979L16.9231 8.47146C17.1928 9.26076 17.6286 9.98304 18.2012 10.5896C18.7738 11.1961 19.4698 11.6728 20.2422 11.9875L20.5587 12.1056L24.0003 13.281C26.5524 14.1531 26.6297 17.6794 24.2337 18.7133L24.0003 18.8008L20.5587 19.9777C19.7691 20.2472 19.0465 20.683 18.4397 21.2556C17.8329 21.8282 17.356 22.5243 17.0412 23.2969L16.9231 23.6119L15.7476 27.055C14.8756 29.6071 11.3493 29.6844 10.3168 27.2883L10.2264 27.055L9.05097 23.6133C8.78144 22.8238 8.34568 22.1012 7.77309 21.4944C7.2005 20.8876 6.50442 20.4107 5.7318 20.0958L5.4168 19.9777L1.97513 18.8023C-0.578407 17.9302 -0.655699 14.404 1.7418 13.3715L1.97513 13.281L5.4168 12.1056C6.2061 11.8359 6.92838 11.4001 7.53492 10.8275C8.14146 10.2549 8.61815 9.55892 8.93284 8.78646L9.05097 8.47146L10.2264 5.02833ZM12.987 5.97042L11.8116 9.41208C11.4009 10.6157 10.7328 11.7152 9.85383 12.6343C8.97485 13.5533 7.9061 14.2697 6.72201 14.7335L6.35743 14.8663L2.91576 16.0417L6.35743 17.2171C7.56099 17.6278 8.66058 18.2959 9.57961 19.1748C10.4986 20.0538 11.215 21.1226 11.6789 22.3067L11.8116 22.6712L12.987 26.1129L14.1624 22.6712C14.5731 21.4677 15.2412 20.3681 16.1202 19.4491C16.9992 18.53 18.0679 17.8137 19.252 17.3498L19.6166 17.2185L23.0583 16.0417L19.6166 14.8663C18.413 14.4556 17.3134 13.7875 16.3944 12.9085C15.4754 12.0295 14.759 10.9608 14.2951 9.77667L14.1639 9.41208L12.987 5.97042ZM24.6537 2.63503e-07C24.9265 -3.44126e-07 25.1939 0.0765308 25.4254 0.220896C25.6569 0.365261 25.8432 0.571671 25.9633 0.816667L26.0333 0.987292L26.5437 2.48354L28.0414 2.99396C28.3148 3.08685 28.5545 3.25881 28.7301 3.48806C28.9056 3.71731 29.0092 3.99353 29.0276 4.2817C29.0461 4.56987 28.9785 4.85702 28.8336 5.10677C28.6886 5.35652 28.4728 5.55762 28.2135 5.68458L28.0414 5.75458L26.5451 6.265L26.0347 7.76271C25.9417 8.03604 25.7696 8.2756 25.5402 8.45103C25.3109 8.62646 25.0346 8.72986 24.7465 8.74814C24.4583 8.76641 24.1712 8.69873 23.9216 8.55368C23.6719 8.40862 23.4709 8.19272 23.3441 7.93333L23.2741 7.76271L22.7637 6.26646L21.266 5.75604C20.9926 5.66315 20.7529 5.49119 20.5773 5.26194C20.4017 5.03269 20.2982 4.75647 20.2797 4.4683C20.2613 4.18013 20.3288 3.89298 20.4738 3.64323C20.6187 3.39348 20.8345 3.19238 21.0939 3.06542L21.266 2.99542L22.7622 2.485L23.2726 0.987292C23.371 0.699162 23.557 0.449033 23.8047 0.271977C24.0524 0.0949215 24.3492 -0.000182702 24.6537 2.63503e-07Z" fill="#FFFFFF" />
</svg>
