<svg xmlns="http://www.w3.org/2000/svg" viewBox="0 0 42.3529 42.3529" fill="none">
  <path d="M30.3967 0C37.548 0 42.3529 5.00188 42.3529 12.4687V29.8631C42.3529 30.1828 42.2958 30.4687 42.2788 30.7779C42.2682 30.9579 42.2704 31.1379 42.2555 31.3179C42.2471 31.3984 42.2238 31.4725 42.2153 31.5529C42.1454 32.2179 42.0374 32.8532 41.8871 33.4694C41.8489 33.6346 41.8045 33.7934 41.76 33.9544C41.5906 34.5515 41.3915 35.1212 41.1522 35.6654C41.0824 35.8179 41.0061 35.964 40.9341 36.1144C40.6758 36.6332 40.3962 37.1308 40.0722 37.5925L39.7588 37.9991C39.4221 38.4353 39.0706 38.8525 38.6725 39.2315C38.5433 39.3543 38.3972 39.4602 38.2616 39.5767C37.8529 39.9282 37.4358 40.2649 36.9762 40.5529C36.8111 40.6567 36.6289 40.7329 36.4595 40.8261C35.9915 41.0845 35.5193 41.3365 35.0047 41.5313C34.7929 41.6118 34.5579 41.6541 34.3376 41.724C33.8315 41.8807 33.3318 42.0438 32.7875 42.1369C32.6506 42.1609 32.5096 42.1779 32.3666 42.1911L31.4979 42.2534C31.1294 42.2809 30.78 42.3529 30.3967 42.3529H11.9393C11.1431 42.3529 10.3828 42.2725 9.648 42.1518C9.62047 42.1475 9.59506 42.1433 9.56965 42.1391C6.70447 41.6456 4.32635 40.2628 2.65976 38.1769C2.64071 38.1769 2.64071 38.1558 2.62165 38.1367C0.946588 36.0275 0 33.192 0 29.8631V12.4687C0 5.00188 4.80918 0 11.9393 0H30.3967ZM30.3967 2.95412H11.9393C6.48212 2.95412 2.95624 6.696 2.95624 12.4687V29.8631C2.95624 31.4831 3.25694 32.9294 3.77153 34.1809C3.83718 34.1026 7.93906 29.1007 7.95812 29.0838C9.42353 27.4108 12.1744 24.9162 15.7849 26.4261C16.6532 26.7861 17.4155 27.2922 18.1144 27.7369C19.3278 28.548 20.0414 28.9292 20.7826 28.8656C21.0896 28.8233 21.3776 28.7322 21.6508 28.5628C22.8325 27.8344 26.172 22.9638 26.3732 22.6991C28.6814 19.692 32.2391 18.8873 35.2038 20.6661C35.4028 20.7847 36.2155 21.3422 37.0964 21.9701L37.7614 22.4484C38.4222 22.9285 39.0446 23.3963 39.3988 23.6965V12.4687C39.3988 6.696 35.8729 2.95412 30.3967 2.95412ZM13.7208 8.46974C15.1983 8.46974 16.5362 9.09102 17.4944 10.0822C18.4568 11.0386 19.0601 12.3568 19.0601 13.7955C19.0601 16.6648 16.6593 19.058 13.7762 19.058C11.242 19.058 9.0813 17.2064 8.59703 14.8092C8.517 14.4495 8.47186 14.0796 8.47186 13.6974C8.47186 10.8077 10.8193 8.46974 13.7208 8.46974Z" fill="#FFFFFF" fill-opacity="0.9" />
</svg>
