<svg xmlns="http://www.w3.org/2000/svg" viewBox="0 0 48 48" fill="none">
  <path d="M41.2749 31.512C36.2099 25.368 33.6851 25.919 30.9088 27.2688C28.9869 28.2019 27.328 29.0122 23.0157 24.6979C18.7034 20.3837 19.5117 18.7268 20.4448 16.8087C21.7984 14.0305 22.3475 11.4999 16.1978 6.43688C14.7328 5.23688 13.1354 4.77608 11.4727 5.09864C7.95332 5.7572 5.46692 9.674 5.47076 9.674C3.91172 11.8551 1.77668 18.4138 15.5373 32.1763C24.5882 41.2291 30.5229 43.4006 34.1248 43.4006C36.0007 43.4006 37.241 42.8131 37.9591 42.2966C37.9994 42.2736 41.9507 39.8256 42.617 36.2371C42.928 34.5686 42.4768 32.9808 41.2749 31.512Z" fill="#FFFFFF" fill-opacity="0.9" />
</svg>
