<svg xmlns="http://www.w3.org/2000/svg" viewBox="0 0 37.5 33.75" fill="none">
  <path d="M23.1563 0C24.975 0.0187292 26.4562 0.955189 27.3187 2.64082C27.5414 3.08563 27.852 3.7353 28.1771 4.42064L28.5697 5.24933L28.7625 5.65622L28.95 6.06826C29.025 6.19936 29.1563 6.29301 29.325 6.29301C33.825 6.29301 37.5 9.96393 37.5 14.4589V25.5841C37.5 30.0791 33.825 33.75 29.325 33.75H8.175C3.65625 33.75 0 30.0791 0 25.5841V14.4589C0 9.96393 3.65625 6.29301 8.175 6.29301C8.325 6.29301 8.475 6.21809 8.53125 6.06826L8.64375 5.84351C9.16875 4.73848 9.80625 3.38998 10.1812 2.64082C11.0437 0.955189 12.5062 0.0187292 14.325 0H23.1563ZM18.75 12.0054C16.7813 12.0054 14.925 12.7733 13.5188 14.178C12.1313 15.5827 11.3625 17.4181 11.3813 19.366C11.3813 21.3325 12.15 23.168 13.5375 24.5727C14.9437 25.9587 16.7813 26.7266 18.75 26.7266C20.775 26.7266 22.6125 25.9025 23.9438 24.5727C25.275 23.2429 26.1 21.4075 26.1188 19.366C26.1188 17.4181 25.35 15.564 23.9625 14.1593C22.575 12.7733 20.7187 12.0054 18.75 12.0054ZM18.75 14.8148C19.9687 14.8148 21.1125 15.283 21.975 16.1446C22.8375 17.0061 23.3063 18.1486 23.3063 19.366C23.2875 21.8757 21.2625 23.9172 18.75 23.9172C17.5313 23.9172 16.3875 23.4489 15.525 22.5874C14.6625 21.7259 14.1938 20.5834 14.1938 19.366V19.3473C14.175 18.1673 14.6438 17.0248 15.5063 16.1633C16.3875 15.283 17.5313 14.8148 18.75 14.8148ZM29.2687 11.5559C28.3312 11.5559 27.5813 12.3238 27.5813 13.2603C27.5813 14.1967 28.3312 14.9459 29.2687 14.9459C30.2062 14.9459 30.975 14.1967 30.975 13.2603C30.975 12.3238 30.2062 11.5559 29.2687 11.5559Z" fill="#FFFFFF" fill-opacity="0.9" />
</svg>
