<svg xmlns="http://www.w3.org/2000/svg" viewBox="0 0 49 37" fill="none">
  <path d="M3.90649 26.9655C2.1217 25.4947 2.25043 21.5599 2.25698 18.6749C2.25043 15.7901 2.1217 11.8552 3.90649 10.3843C5.57126 9.01239 6.74295 9.3659 9.78231 9.14283C12.8238 8.9177 19.2429 -0.0252157 24.1915 2.80495C26.7442 4.81236 26.934 9.02079 26.934 18.6749C26.934 28.329 26.7442 32.5375 24.1915 34.545C19.2429 37.373 12.8238 28.4323 9.78231 28.207" stroke="#FBBF24" stroke-linecap="round" stroke-linejoin="round" stroke-width="4.5" />
  <path d="M42.3344 4.37281C45.1664 8.44978 46.6623 13.1426 46.8157 17.8699M42.3344 32.9755C44.1512 30.3634 45.4165 27.5009 46.1314 24.5403" stroke="#FBBF24" stroke-linecap="round" stroke-linejoin="round" stroke-width="4.5" />
  <path d="M36.4608 10.0279C39.5372 15.4021 39.5372 21.9651 36.4608 27.3224" stroke="#FBBF24" stroke-linecap="round" stroke-linejoin="round" stroke-width="4.5" />
</svg>
