<svg xmlns="http://www.w3.org/2000/svg" viewBox="0 0 46.7 48.2" fill="none">
  <path d="M23.3549 47.7C10.7521 47.7 0.5 37.1137 0.5 24.1C0.5 11.0863 10.7521 0.5 23.3549 0.5C35.9577 0.5 46.2098 11.0863 46.2098 24.1C46.2098 37.1137 35.9577 47.7 23.3549 47.7ZM23.3549 3.87143C12.5478 3.87143 3.76498 12.9406 3.76498 24.1C3.76498 35.2594 12.5478 44.3286 23.3549 44.3286C34.162 44.3286 42.9448 35.2594 42.9448 24.1C42.9448 12.9406 34.162 3.87143 23.3549 3.87143Z" fill="#FBBF24" stroke="#FBBF24" />
  <path d="M23.3547 35.9001C22.4405 35.9001 21.7222 35.1584 21.7222 34.2144V13.9858C21.7222 13.0418 22.4405 12.3001 23.3547 12.3001C24.2689 12.3001 24.9872 13.0418 24.9872 13.9858V34.2144C24.9872 35.1584 24.2689 35.9001 23.3547 35.9001Z" fill="#FBBF24" stroke="#FBBF24" />
  <path d="M33.1497 25.7858H13.5598C12.6456 25.7858 11.9273 25.0441 11.9273 24.1001C11.9273 23.1561 12.6456 22.4144 13.5598 22.4144H33.1497C34.0639 22.4144 34.7822 23.1561 34.7822 24.1001C34.7822 25.0441 34.0639 25.7858 33.1497 25.7858Z" fill="#FBBF24" stroke="#FBBF24" />
</svg>
