<svg xmlns="http://www.w3.org/2000/svg" viewBox="0 0 45.8 45.8" fill="none">
  <path d="M22.9167 43.75C34.4229 43.75 43.75 34.4229 43.75 22.9167C43.75 11.4104 34.4229 2.08333 22.9167 2.08333C11.4104 2.08333 2.08333 11.4104 2.08333 22.9167C2.08333 34.4229 11.4104 43.75 22.9167 43.75Z" stroke="#FBBF24" stroke-linejoin="round" stroke-width="4.17" />
  <path d="M20.7814 27.9688C21.4594 27.2923 21.997 26.4886 22.3635 25.6037C22.73 24.7188 22.918 23.7703 22.9168 22.8125C22.918 21.8548 22.73 20.9062 22.3635 20.0214C21.997 19.1365 21.4594 18.3328 20.7814 17.6563M25.9376 33.124C27.2936 31.7711 28.369 30.1636 29.1019 28.3938C29.8348 26.6241 30.2109 24.727 30.2085 22.8115C30.2085 18.7844 28.5762 15.1386 25.9376 12.5" stroke="#FBBF24" stroke-linecap="round" stroke-linejoin="round" stroke-width="4.17" />
  <path d="M15.6249 24.8958C16.1775 24.8958 16.7074 24.6763 17.0981 24.2856C17.4888 23.8949 17.7083 23.365 17.7083 22.8124C17.7083 22.2599 17.4888 21.73 17.0981 21.3393C16.7074 20.9486 16.1775 20.7291 15.6249 20.7291C15.0724 20.7291 14.5425 20.9486 14.1518 21.3393C13.7611 21.73 13.5416 22.2599 13.5416 22.8124C13.5416 23.365 13.7611 23.8949 14.1518 24.2856C14.5425 24.6763 15.0724 24.8958 15.6249 24.8958Z" fill="#FBBF24" />
</svg>
