<svg width="36" height="36" viewBox="0 0 60 60" fill="none" xmlns="http://www.w3.org/2000/svg"><path d="M34.5258 19.1279C34.5258 24.9096 29.8393 29.5961 24.0576 29.5961C18.2783 29.5961 13.5919 24.9096 13.5919 19.1279C13.5919 13.3462 18.2783 8.65974 24.0576 8.65974C29.8393 8.65974 34.5258 13.3462 34.5258 19.1279Z" stroke="#9BFE03" stroke-linecap="round" stroke-linejoin="round" stroke-opacity="0.9" stroke-width="3.43"/><path d="M43.5342 36.4307C50.404 37.8409 52.5 42.8134 52.5 46.6299" stroke="#9BFE03" stroke-linecap="round" stroke-linejoin="round" stroke-opacity="0.9" stroke-width="3.43"/><path d="M41.21 12.8919C44.743 13.6285 47.3893 16.7641 47.377 20.5128C47.365 23.8301 45.2738 26.6556 42.3368 27.7533" stroke="#9BFE03" stroke-linecap="round" stroke-linejoin="round" stroke-opacity="0.9" stroke-width="3.43"/><path d="M13.7136 48.3672L13.4718 47.713C12.5601 45.2452 10.6174 43.2997 8.15335 42.3867L7.5 42.1445L8.15335 41.9025C10.6174 40.9892 12.5601 39.0437 13.4718 36.5762L13.7136 35.9217L13.9555 36.5762C14.8672 39.0437 16.8098 40.9892 19.2739 41.9025L19.9274 42.1445L19.2739 42.3867C16.8098 43.2997 14.8672 45.2452 13.9555 47.713L13.7136 48.3672Z" stroke="#9BFE03" stroke-linecap="round" stroke-linejoin="round" stroke-opacity="0.9" stroke-width="3.43"/><path d="M26.4268 51.3404C26.0158 49.9886 24.9596 48.9306 23.6099 48.5191C24.9596 48.1079 26.0158 47.0499 26.4268 45.6981C26.8375 47.0499 27.8938 48.1079 29.2435 48.5191C27.8938 48.9306 26.8375 49.9886 26.4268 51.3404Z" stroke="#9BFE03" stroke-linecap="round" stroke-linejoin="round" stroke-opacity="0.9" stroke-width="3.43"/></svg>