<svg preserveAspectRatio="none" width="100%" height="100%" overflow="visible" style="display: block;" viewBox="0 0 35 35" fill="none" xmlns="http://www.w3.org/2000/svg">
<g id="Container">
<path id="Icon" d="M32.5336 19.9664H19.9664V32.5336C19.9664 33.943 18.9094 35 17.5 35C16.0906 35 15.0336 33.943 15.0336 32.5336V19.9664H2.46644C1.05705 19.9664 0 18.9094 0 17.5C0 16.0906 1.05705 15.0336 2.46644 15.0336H15.0336V2.46644C15.0336 1.05705 16.0906 0 17.5 0C18.9094 0 19.9664 1.05705 19.9664 2.46644V15.0336H32.5336C33.943 15.0336 35 16.0906 35 17.5C35 18.9094 33.943 19.9664 32.5336 19.9664Z" fill="rgba(155,254,3,0.9)"/>
</g>
</svg>
