<svg width="42" height="43" viewBox="0 0 42 43" fill="none" xmlns="http://www.w3.org/2000/svg">
  <path d="M21 6.27083C21.6962 6.27083 22.3639 6.55398 22.8562 7.05798C23.3484 7.56199 23.625 8.24556 23.625 8.95833V18.8125H33.25C33.9462 18.8125 34.6139 19.0956 35.1062 19.5997C35.5984 20.1037 35.875 20.7872 35.875 21.5C35.875 22.2128 35.5984 22.8963 35.1062 23.4004C34.6139 23.9044 33.9462 24.1875 33.25 24.1875H23.625V34.0417C23.625 34.7544 23.3484 35.438 22.8562 35.942C22.3639 36.446 21.6962 36.7292 21 36.7292C20.3038 36.7292 19.6361 36.446 19.1438 35.942C18.6516 35.438 18.375 34.7544 18.375 34.0417V24.1875H8.75C8.05381 24.1875 7.38613 23.9044 6.89384 23.4004C6.40156 22.8963 6.125 22.2128 6.125 21.5C6.125 20.7872 6.40156 20.1037 6.89384 19.5997C7.38613 19.0956 8.05381 18.8125 8.75 18.8125H18.375V8.95833C18.375 8.24556 18.6516 7.56199 19.1438 7.05798C19.6361 6.55398 20.3038 6.27083 21 6.27083Z" fill="#9CA3AF"/>
</svg>
