<svg width="39" height="39" viewBox="0 0 39 39" fill="none" xmlns="http://www.w3.org/2000/svg">
  <path d="M19.5 5.6875C20.1465 5.6875 20.7665 5.94431 21.2236 6.40143C21.6807 6.85855 21.9375 7.47853 21.9375 8.125V17.0625H30.875C31.5215 17.0625 32.1415 17.3193 32.5986 17.7764C33.0557 18.2335 33.3125 18.8535 33.3125 19.5C33.3125 20.1465 33.0557 20.7665 32.5986 21.2236C32.1415 21.6807 31.5215 21.9375 30.875 21.9375H21.9375V30.875C21.9375 31.5215 21.6807 32.1415 21.2236 32.5986C20.7665 33.0557 20.1465 33.3125 19.5 33.3125C18.8535 33.3125 18.2335 33.0557 17.7764 32.5986C17.3193 32.1415 17.0625 31.5215 17.0625 30.875V21.9375H8.125C7.47853 21.9375 6.85855 21.6807 6.40143 21.2236C5.94431 20.7665 5.6875 20.1465 5.6875 19.5C5.6875 18.8535 5.94431 18.2335 6.40143 17.7764C6.85855 17.3193 7.47853 17.0625 8.125 17.0625H17.0625V8.125C17.0625 7.47853 17.3193 6.85855 17.7764 6.40143C18.2335 5.94431 18.8535 5.6875 19.5 5.6875Z" fill="rgba(155,254,3,0.9)"/>
</svg>
