<svg xmlns="http://www.w3.org/2000/svg"><path d="M30.7724 21.2483H29.4215V18.4648C29.4215 14.6456 26.3338 11.5385 22.5385 11.5385C18.7431 11.5385 15.6554 14.6456 15.6554 18.4648V21.2483H14.3045C12.825 21.2483 11.5385 22.4782 11.5385 23.967V37.8197C11.5385 39.3086 12.825 40.5385 14.3045 40.5385H30.7724C32.2519 40.5385 33.5385 39.3086 33.5385 37.8197V23.967C33.5385 22.4782 32.2519 21.2483 30.7724 21.2483V21.2483M22.5385 33.6769C21.0589 33.6769 19.7724 32.3822 19.7724 30.8934C19.7724 29.4045 21.0589 28.1099 22.5385 28.1099C24.018 28.1099 25.3045 29.4045 25.3045 30.8934C25.3045 32.3822 24.018 33.6769 22.5385 33.6769V33.6769M18.4215 21.2483V18.4648C18.4215 16.1992 20.287 14.3219 22.5385 14.3219C24.7899 14.3219 26.6554 16.1992 26.6554 18.4648V21.2483H18.4215V21.2483"/></svg>