<svg xmlns="http://www.w3.org/2000/svg"><path d="M14.7078 14.7859H24.1423C24.953 14.7859 25.6901 14.0306 25.6901 13.1244C25.6901 12.2937 24.953 11.5385 24.1423 11.5385H14.7078C12.9389 11.5385 11.5385 12.9734 11.5385 14.7859V37.2911C11.5385 39.1036 12.9389 40.5385 14.7078 40.5385H24.1423C24.953 40.5385 25.6901 39.7833 25.6901 38.9525C25.6901 38.0463 24.953 37.2911 24.1423 37.2911H14.7078V14.7859ZM39.3258 25.5098L34.9034 20.9786C34.3875 20.4499 33.5767 20.8275 33.5767 21.5072V24.4525H22.5207C21.7099 24.4525 20.9729 25.1322 20.9729 26.0385C20.9729 26.9447 21.7099 27.6244 22.5207 27.6244H33.5767V30.5697C33.5767 31.2494 34.3875 31.627 34.9034 31.0984L39.2521 26.5671C39.6206 26.265 39.6206 25.8119 39.3258 25.5098Z"/></svg>