<svg xmlns="http://www.w3.org/2000/svg"><path d="M24.5385 11.5385C17.3366 11.5385 11.5385 17.3366 11.5385 24.5385C11.5385 31.7403 17.3366 37.5385 24.5385 37.5385C31.7403 37.5385 37.5385 31.7403 37.5385 24.5385C37.5385 17.3366 31.7403 11.5385 24.5385 11.5385V11.5385M24.5385 31.069C23.8061 31.069 23.2568 30.4586 23.2568 29.7263V24.5385C23.2568 23.8061 23.8061 23.2568 24.5385 23.2568C25.2709 23.2568 25.8202 23.8061 25.8202 24.5385V29.7263C25.8202 30.4586 25.2709 31.069 24.5385 31.069V31.069M25.8202 20.6324H23.2568V18.0079H25.8202V20.6324V20.6324"/></svg>