<svg width="20" height="20" viewBox="10 10 30 30" fill="none" xmlns="http://www.w3.org/2000/svg">
  <path d="M22.9978 25.3622C22.6881 25.3622 22.3784 25.2905 22.0687 25.2905C18.9096 25.2905 15.8744 26.3649 13.3348 28.0839C12.2198 28.8718 11.5385 30.3759 11.5385 31.9517V34.4586C11.5385 35.3181 12.0959 36.0343 12.8393 36.0343H23.7411C22.6881 34.3153 22.0687 32.1666 22.0687 29.8746C22.0687 28.2988 22.4403 26.723 22.9978 25.3622ZM16.8036 17.6982C16.8036 14.3319 19.1574 11.5385 22.0687 11.5385C24.98 11.5385 27.3957 14.3319 27.3957 17.6982C27.3957 21.0646 24.98 23.7864 22.0687 23.7864C19.1574 23.7864 16.8036 21.0646 16.8036 17.6982ZM36.3154 29.8746C36.3154 29.588 36.2535 29.2299 36.1916 28.9434L37.3065 27.7974C37.5543 27.5825 37.6162 27.1528 37.4304 26.8663L36.6871 25.2905C36.5013 25.004 36.1916 24.8608 35.8819 24.9324L34.5191 25.5054C34.0855 25.0757 33.59 24.7892 33.0944 24.5743L32.7847 22.8553C32.7228 22.5688 32.475 22.2823 32.1034 22.2823H30.5548C30.2451 22.2823 29.9973 22.5688 29.9354 22.8553L29.6257 24.5743C29.1301 24.7892 28.6346 25.0757 28.201 25.5054L26.7763 24.9324C26.5285 24.8608 26.1569 25.004 26.033 25.2905L25.2277 26.8663C25.1039 27.1528 25.1658 27.5825 25.3516 27.7974L26.4666 28.9434C26.4666 29.2299 26.4047 29.588 26.4047 29.8746C26.4047 30.2327 26.4666 30.5192 26.4666 30.8773L25.3516 31.9517C25.1658 32.2382 25.1039 32.5963 25.2277 32.9544L26.033 34.5302C26.1569 34.8167 26.5285 34.9599 26.7763 34.8167L28.201 34.3153C28.6346 34.6734 29.1301 35.0316 29.6257 35.2465L29.9354 36.8938C29.9973 37.252 30.2451 37.5385 30.5548 37.5385H32.1034C32.475 37.5385 32.7228 37.252 32.7847 36.8938L33.0944 35.2465C33.59 35.0316 34.0855 34.6734 34.5191 34.3153L35.8819 34.8167C36.1916 34.9599 36.5013 34.8167 36.6871 34.5302L37.4304 32.9544C37.6162 32.5963 37.5543 32.2382 37.3065 31.9517L36.1916 30.8773C36.2535 30.5192 36.3154 30.2327 36.3154 29.8746ZM31.3601 32.9544C29.8734 32.9544 28.6965 31.5936 28.6965 29.8746C28.6965 28.2272 29.8734 26.8663 31.3601 26.8663C32.7847 26.8663 33.9616 28.2272 33.9616 29.8746C33.9616 31.5936 32.7847 32.9544 31.3601 32.9544Z" fill="#34D399"/>
</svg>
