<svg width="20" height="20" viewBox="10 10 30 30" fill="none" xmlns="http://www.w3.org/2000/svg">
  <path d="M34.9751 11.5385H14.1629C12.6981 11.5385 11.5385 12.6981 11.5385 14.1018V37.5385L16.7263 32.3507H34.9751C36.3788 32.3507 37.5385 31.191 37.5385 29.7263V14.1018C37.5385 12.6981 36.3788 11.5385 34.9751 11.5385ZM25.8202 27.1629H23.2568V24.5385H25.8202V27.1629ZM25.8202 20.6324C25.8202 21.3648 25.2709 21.914 24.5385 21.914C23.8061 21.914 23.2568 21.3648 23.2568 20.6324V18.0079C23.2568 17.3366 23.8061 16.7263 24.5385 16.7263C25.2709 16.7263 25.8202 17.3366 25.8202 18.0079V20.6324Z" fill="#60A5FA"/>
</svg>
