<svg width="20" height="20" viewBox="10 10 30 30" fill="none" xmlns="http://www.w3.org/2000/svg">
  <path d="M22.9317 11.78L13.1661 16.0312C12.1895 16.4821 11.5385 17.5127 11.5385 18.5433V25.0489C11.5385 32.6496 16.877 39.7993 24.0385 41.5385C31.1999 39.7993 36.5385 32.6496 36.5385 25.0489V18.5433C36.5385 17.5127 35.8874 16.4821 34.9109 16.0312L25.1452 11.78C24.4291 11.4579 23.6478 11.4579 22.9317 11.78V11.78M20.2624 32.3275L16.6817 28.7204C16.1609 28.2051 16.1609 27.3678 16.6817 26.7881C17.2025 26.2728 18.114 26.2728 18.6348 26.7881L21.239 29.3645L29.4421 21.313C29.9629 20.7977 30.8744 20.7977 31.3952 21.313C31.9161 21.8283 31.9161 22.7301 31.3952 23.2454L22.2155 32.3275C21.6947 32.8428 20.8484 32.8428 20.2624 32.3275V32.3275" fill="#FB923C"/>
</svg>
