<svg xmlns="http://www.w3.org/2000/svg"><path d="M11.4952 14.5898L19.2287 22.3233C19.6391 22.7337 20.1957 22.9642 20.776 22.9642C21.3564 22.9642 21.9129 22.7337 22.3233 22.3233C22.7337 21.913 22.9642 21.3564 22.9642 20.776C22.9642 20.1957 22.7337 19.6391 22.3233 19.2288L14.5869 11.4952L22.3219 3.76167C22.525 3.55848 22.686 3.31727 22.7959 3.05183C22.9058 2.78638 22.9623 2.50189 22.9623 2.2146C22.9622 1.92731 22.9055 1.64284 22.7955 1.37744C22.6855 1.11205 22.5243 0.870918 22.3211 0.667821C22.1179 0.464723 21.8767 0.303637 21.6113 0.193758C21.3458 0.0838789 21.0613 0.0273597 20.7741 0.0274274C20.4868 0.0274951 20.2023 0.0841481 19.9369 0.194152C19.6715 0.304156 19.4304 0.465357 19.2273 0.66855L11.4952 8.40209L3.76165 0.66855C3.55996 0.459529 3.31866 0.292768 3.05183 0.178C2.785 0.0632309 2.49798 0.00275171 2.20753 9.17346e-05C1.91708 -0.00256824 1.62901 0.0526438 1.36012 0.162506C1.09123 0.272369 0.846919 0.434682 0.641433 0.639975C0.435947 0.845267 0.273404 1.08943 0.163288 1.35821C0.0531714 1.62699 -0.00231228 1.91502 7.38161e-05 2.20547C0.00245991 2.49592 0.0626677 2.783 0.177185 3.04993C0.291702 3.31687 0.458235 3.55833 0.667066 3.76022L8.40352 11.4952L0.668525 19.2302C0.459694 19.4321 0.293161 19.6736 0.178644 19.9405C0.0641267 20.2074 0.00391814 20.4945 0.00153204 20.785C-0.000854048 21.0754 0.0546296 21.3634 0.164746 21.6322C0.274862 21.901 0.437405 22.1452 0.642891 22.3505C0.848378 22.5557 1.09269 22.7181 1.36158 22.8279C1.63046 22.9378 1.91854 22.993 2.20899 22.9903C2.49944 22.9877 2.78646 22.9272 3.05329 22.8124C3.32012 22.6977 3.56142 22.5309 3.76311 22.3219L11.4952 14.5898Z"/></svg>